<svg width="27" height="27" viewBox="0 0 27 27" fill="none" xmlns="http://www.w3.org/2000/svg">
<path id="Vector" d="M21.5115 15.7054H14.2213V12.0621H26.363C26.4468 12.5919 26.5 13.132 26.5 13.8157C26.5 17.5483 25.203 20.7128 22.9759 22.943C20.7492 25.1729 17.5613 26.5 13.7213 26.5C6.39877 26.5 0.5 20.6848 0.5 13.5C0.5 6.31523 6.39877 0.5 13.7213 0.5C17.084 0.5 19.9336 1.64128 22.1812 3.54569L19.1784 6.38628C13.9046 1.92933 4.71742 5.65192 4.71742 13.5C4.71742 18.4843 8.76392 22.5246 13.7213 22.5246C19.4595 22.5246 21.6554 18.4503 22.0051 16.2852L22.0987 15.7054H21.5115Z" fill="white" stroke="white"/>
</svg>
