<svg width="30" height="30" viewBox="0 0 30 30" fill="none" xmlns="http://www.w3.org/2000/svg">
<path id="Vector" d="M28.125 1.875H22.5C22.5 0.836719 21.6614 0 20.625 0H9.375C8.33859 0 7.5 0.836719 7.5 1.875H1.875C0.838594 1.875 0 2.71172 0 3.75V7.5C0 11.6419 3.35812 15 7.5 15C7.58813 15 7.67016 14.9761 7.75641 14.9723C8.43 17.6109 10.4902 19.6748 13.125 20.3578V26.25H9.375C8.33859 26.25 7.5 27.0867 7.5 28.125V30H22.5V28.125C22.5 27.0867 21.6614 26.25 20.625 26.25H16.875V20.3578C19.5098 19.6748 21.57 17.6114 22.2436 14.9728C22.3298 14.9761 22.4119 15 22.5 15C26.6419 15 30 11.6419 30 7.5V3.75C30 2.71172 29.1614 1.875 28.125 1.875ZM3.75 7.5V5.625H7.5V11.25C5.42906 11.25 3.75 9.56906 3.75 7.5ZM26.25 7.5C26.25 9.56906 24.5709 11.25 22.5 11.25V5.625H26.25V7.5Z" fill="white"/>
</svg>
