<svg width="30" height="24" viewBox="0 0 30 24" fill="none" xmlns="http://www.w3.org/2000/svg">
<g id="Group">
<path id="Vector" d="M5.52321 6.29123L0 12.5794V15.1349V17.6874H5.53125H11.0625V20.8437V24L13.8161 23.9939L16.567 23.9848L16.575 18.2882L16.5804 12.5947H11.0571H5.53125L8.66518 9.01753C10.3902 7.05362 12.8705 4.21754 14.183 2.7202L16.567 -1.38405e-07H13.808H11.0491L5.52321 6.29123Z" fill="white"/>
<path id="Vector_2" d="M18.9365 3.141C18.9365 4.86705 18.9446 6.28204 18.9526 6.28204C18.9606 6.28204 20.2008 4.87315 21.7088 3.1471L24.4517 0.0152084L24.4544 3.1715V6.32779L21.6955 9.46883L18.9365 12.6099V15.7418V18.8767H21.6955H24.4544V15.7418V12.6099L27.2267 9.45358L29.999 6.29729V3.15015V-3.93591e-05H24.4678H18.9365V3.141Z" fill="white"/>
<path id="Vector_3" d="M27.2277 15.7357L24.4688 18.8767H27.2357H30V15.7357C30 14.0066 29.9973 12.5946 29.992 12.5946C29.9893 12.5946 28.7437 14.0066 27.2277 15.7357Z" fill="white"/>
</g>
</svg>
