<svg width="32" height="27" viewBox="0 0 32 27" fill="none" xmlns="http://www.w3.org/2000/svg">
<path id="Vector" d="M31.1043 6.79636V23.6248C31.1043 25.1733 29.8358 26.4296 28.2723 26.4296H3.72803C2.16451 26.4296 0.895996 25.1733 0.895996 23.6248V6.79636C0.895996 5.24791 2.16451 3.99161 3.72803 3.99161H8.92008L9.64579 2.06919C10.0588 0.976512 11.1149 0.251953 12.2949 0.251953H19.6995C20.8795 0.251953 21.9356 0.976512 22.3486 2.06919L23.0802 3.99161H28.2723C29.8358 3.99161 31.1043 5.24791 31.1043 6.79636ZM23.0802 15.2106C23.0802 11.3424 19.906 8.19873 16.0002 8.19873C12.0943 8.19873 8.92008 11.3424 8.92008 15.2106C8.92008 19.0788 12.0943 22.2225 16.0002 22.2225C19.906 22.2225 23.0802 19.0788 23.0802 15.2106ZM21.1922 15.2106C21.1922 18.0446 18.8617 20.3526 16.0002 20.3526C13.1386 20.3526 10.8081 18.0446 10.8081 15.2106C10.8081 12.3766 13.1386 10.0686 16.0002 10.0686C18.8617 10.0686 21.1922 12.3766 21.1922 15.2106Z" fill="#DBDBDB"/>
</svg>
