<svg xmlns="http://www.w3.org/2000/svg" width="775" height="456" viewBox="0 0 775 456" fill="none">
  <g filter="url(#filter0_b_473_205)">
    <path d="M0 16C0 7.16344 7.16344 0 16 0H759C767.837 0 775 7.16344 775 16V440C775 448.837 767.837 456 759 456H16C7.16343 456 0 448.837 0 440V16Z" fill="url(#paint0_linear_473_205)" fill-opacity="0.1"/>
    <path d="M0.75 16C0.75 7.57765 7.57766 0.75 16 0.75H759C767.422 0.75 774.25 7.57766 774.25 16V440C774.25 448.422 767.422 455.25 759 455.25H16C7.57764 455.25 0.75 448.422 0.75 440V16Z" stroke="url(#paint1_radial_473_205)" stroke-width="1.5"/>
    <path d="M0.75 16C0.75 7.57765 7.57766 0.75 16 0.75H759C767.422 0.75 774.25 7.57766 774.25 16V440C774.25 448.422 767.422 455.25 759 455.25H16C7.57764 455.25 0.75 448.422 0.75 440V16Z" stroke="url(#paint2_angular_473_205)" stroke-width="1.5"/>
    <path d="M0.75 16C0.75 7.57765 7.57766 0.75 16 0.75H759C767.422 0.75 774.25 7.57766 774.25 16V440C774.25 448.422 767.422 455.25 759 455.25H16C7.57764 455.25 0.75 448.422 0.75 440V16Z" stroke="url(#paint3_angular_473_205)" stroke-width="1.5"/>
  </g>
  <defs>
    <filter id="filter0_b_473_205" x="-13" y="-13" width="801" height="482" filterUnits="userSpaceOnUse" color-interpolation-filters="sRGB">
      <feFlood flood-opacity="0" result="BackgroundImageFix"/>
      <feGaussianBlur in="BackgroundImageFix" stdDeviation="6.5"/>
      <feComposite in2="SourceAlpha" operator="in" result="effect1_backgroundBlur_473_205"/>
      <feBlend mode="normal" in="SourceGraphic" in2="effect1_backgroundBlur_473_205" result="shape"/>
    </filter>
    <linearGradient id="paint0_linear_473_205" x1="387.5" y1="0" x2="387.5" y2="456" gradientUnits="userSpaceOnUse">
      <stop stop-color="white"/>
      <stop offset="0.9999" stop-color="white" stop-opacity="0.580941"/>
      <stop offset="1" stop-color="white" stop-opacity="0"/>
    </linearGradient>
    <radialGradient id="paint1_radial_473_205" cx="0" cy="0" r="1" gradientUnits="userSpaceOnUse" gradientTransform="translate(387.5 228) rotate(90) scale(228 387.5)">
      <stop stop-color="#151515"/>
      <stop offset="1" stop-color="#151515" stop-opacity="0"/>
    </radialGradient>
    <radialGradient id="paint2_angular_473_205" cx="0" cy="0" r="1" gradientUnits="userSpaceOnUse" gradientTransform="translate(387.5 228) rotate(90) scale(228 387.5)">
      <stop offset="0.0523223" stop-color="white" stop-opacity="0"/>
      <stop offset="0.744384" stop-color="#E200C5" stop-opacity="0.5"/>
    </radialGradient>
    <radialGradient id="paint3_angular_473_205" cx="0" cy="0" r="1" gradientUnits="userSpaceOnUse" gradientTransform="translate(387.5 228) rotate(90) scale(228 369.037)">
      <stop offset="0.125129" stop-color="#CB217D" stop-opacity="0.5"/>
      <stop offset="0.480811" stop-color="#E388B9" stop-opacity="0.268987"/>
      <stop offset="1" stop-color="white" stop-opacity="0"/>
    </radialGradient>
  </defs>
</svg>