<svg width="36" height="36" viewBox="0 0 36 36" fill="none" xmlns="http://www.w3.org/2000/svg">
<g id="messages-2">
<g id="vuesax/outline/messages-2">
<g id="messages-2_2">
<path id="Vector" d="M26.8061 32.805C26.3411 32.805 25.8761 32.685 25.4561 32.43L19.4411 28.86C18.8111 28.845 18.1811 28.8 17.5811 28.71C17.1761 28.65 16.8311 28.38 16.6811 27.99C16.5311 27.6 16.6061 27.18 16.8761 26.865C17.8661 25.71 18.3761 24.33 18.3761 22.86C18.3761 19.23 15.1811 16.275 11.2511 16.275C9.78109 16.275 8.37108 16.68 7.18608 17.46C6.85608 17.67 6.45109 17.7 6.09109 17.535C5.74609 17.37 5.4911 17.04 5.4461 16.65C5.4011 16.23 5.37109 15.81 5.37109 15.375C5.37109 7.935 11.8211 1.89001 19.7411 1.89001C27.6611 1.89001 34.1111 7.935 34.1111 15.375C34.1111 19.455 32.2211 23.205 28.8911 25.77L29.4011 29.85C29.5211 30.87 29.0711 31.83 28.2161 32.385C27.7961 32.655 27.3011 32.805 26.8061 32.805ZM19.7261 26.595C19.9361 26.58 20.1461 26.64 20.3261 26.76L26.6111 30.495C26.7761 30.6 26.9111 30.555 27.0011 30.495C27.0761 30.45 27.1961 30.33 27.1661 30.12L26.5811 25.38C26.5361 24.96 26.7161 24.555 27.0461 24.315C30.1061 22.17 31.8611 18.9 31.8611 15.345C31.8611 9.14997 26.4311 4.10999 19.7411 4.10999C13.3061 4.10999 8.02609 8.79004 7.63609 14.67C8.76109 14.235 9.9761 13.995 11.2361 13.995C16.4111 13.995 20.6111 17.955 20.6111 22.83C20.6261 24.15 20.3111 25.425 19.7261 26.595Z" fill="#FF1382"/>
<path id="Vector_2" d="M6.87064 34.1251C6.48064 34.1251 6.10563 34.0201 5.76063 33.7951C5.08563 33.3601 4.72564 32.6101 4.81564 31.8151L5.11564 29.5051C3.09064 27.8551 1.89062 25.4101 1.89062 22.8451C1.89062 19.9201 3.42064 17.1901 5.98564 15.5551C7.53064 14.5501 9.36063 14.0101 11.2656 14.0101C16.4406 14.0101 20.6406 17.9701 20.6406 22.8451C20.6406 24.8251 19.9206 26.7751 18.6006 28.3201C16.9056 30.3751 14.3706 31.5751 11.5806 31.6651L7.92063 33.8401C7.59063 34.0351 7.23064 34.1251 6.87064 34.1251ZM11.2506 16.2601C9.78063 16.2601 8.37062 16.6651 7.18562 17.4451C5.26562 18.6751 4.12563 20.6851 4.12563 22.8451C4.12563 24.9301 5.14564 26.8351 6.94564 28.0651C7.29064 28.3051 7.47063 28.7101 7.42563 29.1301L7.09563 31.6951L10.6806 29.5651C10.8606 29.4601 11.0556 29.4001 11.2506 29.4001C13.4556 29.4001 15.5406 28.4551 16.8606 26.8501C17.8506 25.6801 18.3756 24.3 18.3756 22.83C18.3756 19.215 15.1806 16.2601 11.2506 16.2601Z" fill="#FF1382"/>
</g>
</g>
</g>
</svg>
