<svg width="40" height="40" viewBox="0 0 40 40" fill="none" xmlns="http://www.w3.org/2000/svg">
<g id="notification">
<g id="vuesax/outline/notification">
<g id="notification_2">
<path id="Vector" d="M20.0334 34.2167C16.1501 34.2167 12.2668 33.6 8.58344 32.3667C7.18344 31.8834 6.11677 30.9 5.65011 29.6167C5.16677 28.3334 5.33344 26.9167 6.10011 25.65L8.01677 22.4667C8.41677 21.8 8.78344 20.4667 8.78344 19.6834V14.8667C8.78344 8.6667 13.8334 3.6167 20.0334 3.6167C26.2334 3.6167 31.2834 8.6667 31.2834 14.8667V19.6834C31.2834 20.45 31.6501 21.8 32.0501 22.4834L33.9501 25.65C34.6668 26.85 34.8001 28.3 34.3168 29.6167C33.8334 30.9334 32.7834 31.9334 31.4668 32.3667C27.8001 33.6 23.9168 34.2167 20.0334 34.2167ZM20.0334 6.1167C15.2168 6.1167 11.2834 10.0334 11.2834 14.8667V19.6834C11.2834 20.9 10.7834 22.7 10.1668 23.75L8.25011 26.9334C7.88344 27.55 7.78344 28.2 8.00011 28.75C8.20011 29.3167 8.70011 29.75 9.38344 29.9834C16.3501 32.3167 23.7334 32.3167 30.7001 29.9834C31.3001 29.7834 31.7668 29.3334 31.9834 28.7334C32.2001 28.1334 32.1501 27.4834 31.8168 26.9334L29.9001 23.75C29.2668 22.6667 28.7834 20.8834 28.7834 19.6667V14.8667C28.7834 10.0334 24.8668 6.1167 20.0334 6.1167Z" fill="#ABABAB"/>
<path id="Vector_2" d="M23.1337 6.56668C23.017 6.56668 22.9004 6.55001 22.7837 6.51667C22.3004 6.38334 21.8337 6.28334 21.3837 6.21668C19.967 6.03334 18.6004 6.13334 17.317 6.51667C16.8504 6.66667 16.3504 6.51667 16.0337 6.16667C15.717 5.81667 15.617 5.31667 15.8004 4.86667C16.4837 3.11668 18.1504 1.96667 20.0504 1.96667C21.9504 1.96667 23.617 3.10001 24.3004 4.86667C24.467 5.31667 24.3837 5.81667 24.067 6.16667C23.817 6.43334 23.467 6.56668 23.1337 6.56668Z" fill="#ABABAB"/>
<path id="Vector_3" d="M20.0332 38.0167C18.3832 38.0167 16.7832 37.3501 15.6165 36.1834C14.4499 35.0167 13.7832 33.4167 13.7832 31.7667H16.2832C16.2832 32.7501 16.6832 33.7167 17.3832 34.4167C18.0832 35.1167 19.0499 35.5167 20.0332 35.5167C22.0999 35.5167 23.7832 33.8334 23.7832 31.7667H26.2832C26.2832 35.2167 23.4832 38.0167 20.0332 38.0167Z" fill="#ABABAB"/>
</g>
</g>
</g>
</svg>
