<svg width="36" height="36" viewBox="0 0 36 36" fill="none" xmlns="http://www.w3.org/2000/svg">
<g id="gameboy">
<g id="vuesax/outline/gameboy">
<g id="gameboy_2">
<path id="Vector" d="M24 34.125H12C6.525 34.125 3.375 30.975 3.375 25.5V10.5C3.375 5.025 6.525 1.875 12 1.875H24C29.475 1.875 32.625 5.025 32.625 10.5V25.5C32.625 30.975 29.475 34.125 24 34.125ZM12 4.125C7.71 4.125 5.625 6.21 5.625 10.5V25.5C5.625 29.79 7.71 31.875 12 31.875H24C28.29 31.875 30.375 29.79 30.375 25.5V10.5C30.375 6.21 28.29 4.125 24 4.125H12Z" fill="#FF1382"/>
<path id="Vector_2" d="M24.375 17.625H11.625C9.555 17.625 7.875 15.945 7.875 13.875V10.125C7.875 8.055 9.555 6.375 11.625 6.375H24.375C26.445 6.375 28.125 8.055 28.125 10.125V13.875C28.125 15.945 26.445 17.625 24.375 17.625ZM11.625 8.625C10.8 8.625 10.125 9.3 10.125 10.125V13.875C10.125 14.7 10.8 15.375 11.625 15.375H24.375C25.2 15.375 25.875 14.7 25.875 13.875V10.125C25.875 9.3 25.2 8.625 24.375 8.625H11.625Z" fill="#FF1382"/>
<path id="Vector_3" d="M12.0002 27.495C11.7152 27.495 11.4302 27.3899 11.2052 27.1649C10.7702 26.7299 10.7702 26.0099 11.2052 25.5749L14.6551 22.125C15.0901 21.69 15.8101 21.69 16.2451 22.125C16.6801 22.56 16.6801 23.28 16.2451 23.715L12.7952 27.1649C12.5702 27.3899 12.2852 27.495 12.0002 27.495Z" fill="#FF1382"/>
<path id="Vector_4" d="M15.4951 27.5399C15.2101 27.5399 14.9251 27.435 14.7001 27.21L11.2501 23.76C10.8151 23.325 10.8151 22.605 11.2501 22.17C11.6851 21.735 12.4051 21.735 12.8401 22.17L16.2901 25.62C16.7251 26.055 16.7251 26.775 16.2901 27.21C16.0651 27.435 15.7801 27.5399 15.4951 27.5399Z" fill="#FF1382"/>
<path id="Vector_5" d="M24.765 24.4951C23.94 24.4951 23.25 23.8201 23.25 22.9951C23.25 22.1701 23.91 21.4951 24.735 21.4951H24.765C25.59 21.4951 26.265 22.1701 26.265 22.9951C26.265 23.8201 25.59 24.4951 24.765 24.4951Z" fill="#FF1382"/>
<path id="Vector_6" d="M21.7344 27.735C20.9094 27.735 20.2344 27.075 20.2344 26.25V26.22C20.2344 25.395 20.9094 24.72 21.7344 24.72C22.5594 24.72 23.2344 25.395 23.2344 26.22C23.2344 27.045 22.5594 27.735 21.7344 27.735Z" fill="#FF1382"/>
</g>
</g>
</g>
</svg>
