<svg width="36" height="36" viewBox="0 0 36 36" fill="none" xmlns="http://www.w3.org/2000/svg">
<g id="home-2">
<g id="vuesax/outline/home-2">
<g id="home-2_2">
<path id="Vector" d="M26.685 34.125H9.315C5.205 34.125 1.875 30.78 1.875 26.67V15.555C1.875 13.515 3.135 10.95 4.755 9.68996L12.84 3.38996C15.27 1.49996 19.155 1.40996 21.675 3.17996L30.945 9.67496C32.73 10.92 34.125 13.59 34.125 15.765V26.685C34.125 30.78 30.795 34.125 26.685 34.125ZM14.22 5.15996L6.135 11.46C5.07 12.3 4.125 14.205 4.125 15.555V26.67C4.125 29.535 6.45 31.875 9.315 31.875H26.685C29.55 31.875 31.875 29.55 31.875 26.685V15.765C31.875 14.325 30.84 12.33 29.655 11.52L20.385 5.02496C18.675 3.82496 15.855 3.88496 14.22 5.15996Z" fill="#FF1382"/>
<path id="Vector_2" d="M18 28.125C17.385 28.125 16.875 27.615 16.875 27V22.5C16.875 21.885 17.385 21.375 18 21.375C18.615 21.375 19.125 21.885 19.125 22.5V27C19.125 27.615 18.615 28.125 18 28.125Z" fill="#FF1382"/>
</g>
</g>
</g>
</svg>
