<svg width="36" height="36" viewBox="0 0 36 36" fill="none" xmlns="http://www.w3.org/2000/svg">
<g id="people">
<g id="vuesax/outline/people">
<g id="people_2">
<path id="Vector" d="M27.0005 11.865C26.9555 11.865 26.9255 11.865 26.8805 11.865H26.8055C23.9705 11.775 21.8555 9.58502 21.8555 6.88502C21.8555 4.12502 24.1055 1.89001 26.8505 1.89001C29.5955 1.89001 31.8455 4.14002 31.8455 6.88502C31.8305 9.60002 29.7155 11.79 27.0155 11.88C27.0155 11.865 27.0155 11.865 27.0005 11.865ZM26.8505 4.12502C25.3355 4.12502 24.1055 5.35503 24.1055 6.87003C24.1055 8.35503 25.2605 9.55503 26.7455 9.61503C26.7605 9.60003 26.8805 9.60003 27.0155 9.61503C28.4705 9.54003 29.5955 8.34003 29.6105 6.87003C29.6105 5.35503 28.3805 4.12502 26.8505 4.12502Z" fill="#FF1382"/>
<path id="Vector_2" d="M27.0148 22.92C26.4298 22.92 25.8448 22.875 25.2598 22.77C24.6448 22.665 24.2398 22.08 24.3448 21.465C24.4498 20.85 25.0348 20.445 25.6498 20.55C27.4948 20.865 29.4448 20.52 30.7498 19.65C31.4548 19.185 31.8298 18.6 31.8298 18.015C31.8298 17.43 31.4398 16.86 30.7498 16.395C29.4448 15.525 27.4648 15.18 25.6048 15.51C24.9898 15.63 24.4048 15.21 24.2998 14.595C24.1948 13.98 24.5998 13.395 25.2148 13.29C27.6598 12.855 30.1948 13.32 31.9948 14.52C33.3148 15.405 34.0798 16.665 34.0798 18.015C34.0798 19.35 33.3298 20.625 31.9948 21.525C30.6298 22.425 28.8598 22.92 27.0148 22.92Z" fill="#FF1382"/>
<path id="Vector_3" d="M8.95571 11.865C8.94071 11.865 8.9257 11.865 8.9257 11.865C6.22571 11.775 4.1107 9.58499 4.0957 6.88499C4.0957 4.12499 6.34571 1.875 9.09071 1.875C11.8357 1.875 14.0857 4.125 14.0857 6.87C14.0857 9.585 11.9707 11.775 9.2707 11.865L8.95571 10.74L9.06071 11.865C9.0307 11.865 8.98571 11.865 8.95571 11.865ZM9.1057 9.61501C9.1957 9.61501 9.27071 9.615 9.36071 9.63C10.6957 9.57 11.8657 8.36999 11.8657 6.88499C11.8657 5.36999 10.6357 4.13999 9.12071 4.13999C7.60571 4.13999 6.3757 5.36999 6.3757 6.88499C6.3757 8.35499 7.5157 9.54 8.9707 9.63C8.9857 9.615 9.0457 9.61501 9.1057 9.61501Z" fill="#FF1382"/>
<path id="Vector_4" d="M8.94 22.92C7.095 22.92 5.325 22.425 3.96 21.525C2.64 20.64 1.875 19.365 1.875 18.015C1.875 16.68 2.64 15.405 3.96 14.52C5.76 13.32 8.295 12.855 10.74 13.29C11.355 13.395 11.76 13.98 11.655 14.595C11.55 15.21 10.965 15.63 10.35 15.51C8.49 15.18 6.525 15.525 5.205 16.395C4.5 16.86 4.125 17.43 4.125 18.015C4.125 18.6 4.515 19.185 5.205 19.65C6.51 20.52 8.46 20.865 10.305 20.55C10.92 20.445 11.505 20.865 11.61 21.465C11.715 22.08 11.31 22.665 10.695 22.77C10.11 22.875 9.525 22.92 8.94 22.92Z" fill="#FF1382"/>
<path id="Vector_5" d="M18.0005 23.07C17.9555 23.07 17.9255 23.07 17.8805 23.07H17.8055C14.9705 22.98 12.8555 20.79 12.8555 18.09C12.8555 15.33 15.1055 13.095 17.8505 13.095C20.5955 13.095 22.8455 15.345 22.8455 18.09C22.8305 20.805 20.7155 22.995 18.0155 23.085C18.0155 23.07 18.0155 23.07 18.0005 23.07ZM17.8505 15.33C16.3355 15.33 15.1055 16.56 15.1055 18.075C15.1055 19.56 16.2605 20.76 17.7455 20.82C17.7605 20.805 17.8805 20.805 18.0155 20.82C19.4705 20.745 20.5955 19.545 20.6105 18.075C20.6105 16.575 19.3805 15.33 17.8505 15.33Z" fill="#FF1382"/>
<path id="Vector_6" d="M17.9999 34.14C16.1999 34.14 14.3999 33.675 13.0049 32.73C11.6849 31.845 10.9199 30.585 10.9199 29.235C10.9199 27.9 11.6699 26.61 13.0049 25.725C15.8099 23.865 20.2049 23.865 22.9949 25.725C24.3149 26.61 25.0799 27.87 25.0799 29.22C25.0799 30.555 24.3299 31.845 22.9949 32.73C21.5999 33.66 19.7999 34.14 17.9999 34.14ZM14.2499 27.615C13.5449 28.08 13.1699 28.665 13.1699 29.25C13.1699 29.835 13.5599 30.405 14.2499 30.87C16.2749 32.235 19.7099 32.235 21.7349 30.87C22.4399 30.405 22.8149 29.82 22.8149 29.235C22.8149 28.65 22.4249 28.08 21.7349 27.615C19.7249 26.25 16.2899 26.265 14.2499 27.615Z" fill="#FF1382"/>
</g>
</g>
</g>
</svg>
