<svg width="36" height="36" viewBox="0 0 36 36" fill="none" xmlns="http://www.w3.org/2000/svg">
<g id="ranking">
<g id="vuesax/outline/ranking">
<g id="ranking_2">
<path id="Vector" d="M13.005 34.125H3C2.385 34.125 1.875 33.615 1.875 33V24C1.875 21.72 3.72 19.875 6 19.875H13.005C13.62 19.875 14.13 20.385 14.13 21V33C14.13 33.615 13.62 34.125 13.005 34.125ZM4.125 31.875H11.88V22.125H6C4.965 22.125 4.125 22.965 4.125 24V31.875Z" fill="#FF1382"/>
<path id="Vector_2" d="M22.9952 34.125H12.9902C12.3752 34.125 11.8652 33.615 11.8652 33V18C11.8652 15.72 13.7102 13.875 15.9902 13.875H19.9952C22.2752 13.875 24.1202 15.72 24.1202 18V33C24.1202 33.615 23.6252 34.125 22.9952 34.125ZM14.1302 31.875H21.8852V18C21.8852 16.965 21.0452 16.125 20.0102 16.125H16.0052C14.9702 16.125 14.1302 16.965 14.1302 18V31.875Z" fill="#FF1382"/>
<path id="Vector_3" d="M33.0011 34.125H22.9961C22.3811 34.125 21.8711 33.615 21.8711 33V25.5C21.8711 24.885 22.3811 24.375 22.9961 24.375H30.0011C32.2811 24.375 34.1261 26.22 34.1261 28.5V33C34.1261 33.615 33.6161 34.125 33.0011 34.125ZM24.1211 31.875H31.8761V28.5C31.8761 27.465 31.0361 26.625 30.0011 26.625H24.1211V31.875Z" fill="#FF1382"/>
<path id="Vector_4" d="M20.5503 12.525C20.1903 12.525 19.7403 12.4199 19.2303 12.1199L18.0003 11.385L16.7853 12.105C15.5553 12.84 14.7453 12.405 14.4453 12.195C14.1453 11.985 13.5003 11.325 13.8153 9.94498L14.1003 8.69995L13.0803 7.67996C12.4503 7.04996 12.2253 6.29995 12.4503 5.60995C12.6753 4.91995 13.2903 4.43995 14.1603 4.28995L15.4653 4.06496L16.2003 2.59499C17.0103 0.989985 18.9753 0.989985 19.7703 2.59499L20.5053 4.06496L21.8103 4.28995C22.6803 4.43995 23.3103 4.91995 23.5203 5.60995C23.7453 6.29995 23.5053 7.04996 22.8903 7.67996L21.8703 8.69995L22.1553 9.94498C22.4703 11.34 21.8253 11.985 21.5253 12.21C21.3903 12.33 21.0453 12.525 20.5503 12.525ZM18.0003 9.11995C18.3603 9.11995 18.7203 9.20998 19.0203 9.38998L19.8603 9.88496L19.6803 9.07495C19.5303 8.44495 19.7553 7.67997 20.2203 7.21497L20.9853 6.44995L20.0403 6.28497C19.4403 6.17997 18.8553 5.74497 18.5853 5.20497L18.0003 4.07997L17.4303 5.20497C17.1603 5.74497 16.5753 6.17997 15.9753 6.28497L15.0303 6.43498L15.7953 7.19995C16.2603 7.66495 16.4703 8.42998 16.3353 9.05998L16.1553 9.86995L16.9953 9.37497C17.2803 9.19497 17.6403 9.11995 18.0003 9.11995Z" fill="#FF1382"/>
</g>
</g>
</g>
</svg>
