<svg width="50" height="30" viewBox="0 0 50 30" fill="none" xmlns="http://www.w3.org/2000/svg">
<path id="Vector" fill-rule="evenodd" clip-rule="evenodd" d="M0 2.5C0 1.83696 0.263392 1.20107 0.732233 0.732234C1.20107 0.263393 1.83696 0 2.5 0H47.5C48.163 0 48.7989 0.263393 49.2678 0.732234C49.7366 1.20107 50 1.83696 50 2.5C50 3.16304 49.7366 3.79893 49.2678 4.26777C48.7989 4.73661 48.163 5 47.5 5H2.5C1.83696 5 1.20107 4.73661 0.732233 4.26777C0.263392 3.79893 0 3.16304 0 2.5ZM0 15C0 14.337 0.263392 13.7011 0.732233 13.2322C1.20107 12.7634 1.83696 12.5 2.5 12.5H47.5C48.163 12.5 48.7989 12.7634 49.2678 13.2322C49.7366 13.7011 50 14.337 50 15C50 15.663 49.7366 16.2989 49.2678 16.7678C48.7989 17.2366 48.163 17.5 47.5 17.5H2.5C1.83696 17.5 1.20107 17.2366 0.732233 16.7678C0.263392 16.2989 0 15.663 0 15ZM2.5 25C1.83696 25 1.20107 25.2634 0.732233 25.7322C0.263392 26.2011 0 26.837 0 27.5C0 28.163 0.263392 28.7989 0.732233 29.2678C1.20107 29.7366 1.83696 30 2.5 30H47.5C48.163 30 48.7989 29.7366 49.2678 29.2678C49.7366 28.7989 50 28.163 50 27.5C50 26.837 49.7366 26.2011 49.2678 25.7322C48.7989 25.2634 48.163 25 47.5 25H2.5Z" fill="white"/>
</svg>
